<svg width="24" height="24" viewBox="0 0 24 24" fill="none" xmlns="http://www.w3.org/2000/svg">
<rect width="24" height="24" fill="black"/>
<path d="M14 6.5C14 6.5 17 7.5 17 11.5C17 15.5 14 16.5 14 16.5" stroke="#E8EAED" stroke-width="2" stroke-linecap="round"/>
<path d="M16.5 5C16.5 5 19.5 6.7 19.5 11.5C19.5 16.3 16.5 18 16.5 18" stroke="#E8EAED" stroke-width="2" stroke-linecap="round"/>
<path d="M5 16.675V6.325C5 6.04167 5.1 5.80417 5.3 5.6125C5.5 5.42083 5.73333 5.325 6 5.325C6.08333 5.325 6.17083 5.3375 6.2625 5.3625C6.35417 5.3875 6.44167 5.425 6.525 5.475L14.675 10.65C14.825 10.75 14.9375 10.875 15.0125 11.025C15.0875 11.175 15.125 11.3333 15.125 11.5C15.125 11.6667 15.0875 11.825 15.0125 11.975C14.9375 12.125 14.825 12.25 14.675 12.35L6.525 17.525C6.44167 17.575 6.35417 17.6125 6.2625 17.6375C6.17083 17.6625 6.08333 17.675 6 17.675C5.73333 17.675 5.5 17.5792 5.3 17.3875C5.1 17.1958 5 16.9583 5 16.675ZM7 14.85L12.25 11.5L7 8.15V14.85Z" fill="#E8EAED"/>
</svg>
